<svg width="29" height="28" viewBox="0 0 29 28" fill="none" xmlns="http://www.w3.org/2000/svg">
<path d="M14.35 0.608643C12.3935 0.608643 10.865 1.32875 9.76443 2.76897C8.66388 4.20919 8.11361 6.05022 8.11361 8.29207C8.10002 11.0774 8.99676 13.2853 10.8038 14.9157C11.0348 15.1331 11.1163 15.4116 11.0484 15.7513L10.5796 16.7296C10.4302 17.0557 10.2094 17.3104 9.91728 17.4938C9.62516 17.6773 9.01035 17.9388 8.07285 18.2785C8.03209 18.2921 7.17271 18.5706 5.49472 19.1141C3.81674 19.6576 2.92339 19.9565 2.8147 20.0108C1.67339 20.4864 0.92611 20.9823 0.572849 21.4986C0.192415 22.3546 0.00219727 24.5217 0.00219727 27.9999H28.6979C28.6979 24.5217 28.5076 22.3546 28.1272 21.4986C27.7739 20.9823 27.0267 20.4864 25.8854 20.0108C25.7767 19.9565 24.8833 19.6576 23.2053 19.1141C21.5273 18.5706 20.668 18.2921 20.6272 18.2785C19.6897 17.9388 19.0749 17.6773 18.7828 17.4938C18.4906 17.3104 18.2699 17.0557 18.1204 16.7296L17.6517 15.7513C17.5837 15.4116 17.6652 15.1331 17.8962 14.9157C19.7033 13.2853 20.6 11.0774 20.5864 8.29207C20.5864 6.05022 20.0362 4.20919 18.9356 2.76897C17.8351 1.32875 16.3065 0.608643 14.35 0.608643Z" fill="#1E1B1B"/>
</svg>
