<svg width="27" height="28" viewBox="0 0 27 28" fill="none" xmlns="http://www.w3.org/2000/svg">
<path d="M22.5 0.875H3.75C1.67871 0.875 0 2.55371 0 4.625V23.375C0 25.4463 1.67871 27.125 3.75 27.125H22.5C24.5713 27.125 26.25 25.4463 26.25 23.375V4.625C26.25 2.55371 24.5713 0.875 22.5 0.875ZM7.5 21.5C6.46465 21.5 5.625 20.6604 5.625 19.625C5.625 18.5896 6.46465 17.75 7.5 17.75C8.53535 17.75 9.375 18.5896 9.375 19.625C9.375 20.6604 8.53535 21.5 7.5 21.5ZM7.5 15.875C6.46465 15.875 5.625 15.0354 5.625 14C5.625 12.9646 6.46465 12.125 7.5 12.125C8.53535 12.125 9.375 12.9646 9.375 14C9.375 15.0354 8.53535 15.875 7.5 15.875ZM7.5 10.25C6.46465 10.25 5.625 9.41035 5.625 8.375C5.625 7.33965 6.46465 6.5 7.5 6.5C8.53535 6.5 9.375 7.33965 9.375 8.375C9.375 9.41035 8.53535 10.25 7.5 10.25ZM18.75 21.5C17.7146 21.5 16.875 20.6604 16.875 19.625C16.875 18.5896 17.7146 17.75 18.75 17.75C19.7854 17.75 20.625 18.5896 20.625 19.625C20.625 20.6604 19.7854 21.5 18.75 21.5ZM18.75 15.875C17.7146 15.875 16.875 15.0354 16.875 14C16.875 12.9646 17.7146 12.125 18.75 12.125C19.7854 12.125 20.625 12.9646 20.625 14C20.625 15.0354 19.7854 15.875 18.75 15.875ZM18.75 10.25C17.7146 10.25 16.875 9.41035 16.875 8.375C16.875 7.33965 17.7146 6.5 18.75 6.5C19.7854 6.5 20.625 7.33965 20.625 8.375C20.625 9.41035 19.7854 10.25 18.75 10.25Z" fill="#1E1B1B"/>
</svg>
