<svg width="48" height="48" viewBox="0 0 48 48" fill="none" xmlns="http://www.w3.org/2000/svg">
<path fill-rule="evenodd" clip-rule="evenodd" d="M24 4C12.954 4 4 12.954 4 24C4 35.046 12.954 44 24 44C35.046 44 44 35.046 44 24C44 12.954 35.046 4 24 4ZM0 24C0 10.745 10.745 0 24 0C37.255 0 48 10.745 48 24C48 37.255 37.255 48 24 48C10.745 48 0 37.255 0 24Z" fill="white"/>
<path fill-rule="evenodd" clip-rule="evenodd" d="M19.183 45.4711C18.99 45.2211 18.99 42.9971 19.183 38.7981C17.111 38.8701 15.803 38.7261 15.256 38.3671C14.436 37.8271 13.616 36.1671 12.889 34.9961C12.161 33.8251 10.546 33.6401 9.89403 33.3781C9.24203 33.1161 9.07803 32.0501 11.691 32.8561C14.304 33.6631 14.431 35.8611 15.256 36.3741C16.08 36.8881 18.051 36.6641 18.945 36.2521C19.838 35.8401 19.772 34.3081 19.931 33.7011C20.133 33.1341 19.423 33.0081 19.407 33.0041C18.535 33.0041 13.954 32.0071 12.695 27.5711C11.437 23.1341 13.058 20.2341 13.923 18.9871C14.499 18.1571 14.448 16.3851 13.77 13.6741C16.233 13.3591 18.134 14.1341 19.473 16.0001C19.475 16.0101 21.228 14.9571 24 14.9571C26.772 14.9571 27.755 15.8151 28.514 16.0001C29.273 16.1851 29.88 12.7341 34.567 13.6741C33.588 15.5971 32.769 18.0001 33.394 18.9871C34.02 19.9751 36.474 23.1151 34.966 27.5711C33.961 30.5411 31.986 32.3521 29.038 33.0041C28.7 33.1111 28.531 33.2851 28.531 33.5251C28.531 33.8851 28.988 33.9251 29.646 35.6121C30.085 36.7361 30.116 39.9481 29.741 45.2471C28.791 45.4891 28.051 45.6511 27.521 45.7351C26.584 45.8821 25.567 45.9651 24.567 45.9961C23.567 46.0281 23.219 46.0251 21.837 45.8961C20.9438 45.8147 20.057 45.6727 19.183 45.4711Z" fill="white"/>
</svg>
