<svg width="30" height="30" viewBox="0 0 30 30" fill="none" xmlns="http://www.w3.org/2000/svg">
<path d="M19.8585 18.8203C20.5675 18.4395 21.379 18.2227 22.2432 18.2227H22.2462C22.3341 18.2227 22.3751 18.1172 22.3106 18.0586C21.4118 17.252 20.3851 16.6005 19.2725 16.1309C19.2608 16.125 19.2491 16.1221 19.2374 16.1162C21.0567 14.7949 22.2403 12.6475 22.2403 10.2246C22.2403 6.21094 18.9942 2.95898 14.9893 2.95898C10.9844 2.95898 7.74128 6.21094 7.74128 10.2246C7.74128 12.6475 8.92488 14.7949 10.7471 16.1162C10.7354 16.1221 10.7237 16.125 10.712 16.1309C9.40242 16.6846 8.22761 17.4785 7.21687 18.4922C6.21196 19.4953 5.41193 20.6844 4.8614 21.9932C4.31974 23.2748 4.02741 24.6479 4.00007 26.0391C3.99929 26.0703 4.00478 26.1014 4.0162 26.1306C4.02763 26.1597 4.04477 26.1862 4.06661 26.2086C4.08846 26.231 4.11456 26.2488 4.14338 26.2609C4.17221 26.2731 4.20317 26.2793 4.23445 26.2793H5.98933C6.11531 26.2793 6.22078 26.1768 6.22371 26.0508C6.2823 23.7891 7.18757 21.6709 8.79011 20.0654C10.4454 18.4043 12.6485 17.4902 14.9923 17.4902C16.6534 17.4902 18.2471 17.9502 19.6212 18.8115C19.6565 18.8337 19.697 18.8462 19.7386 18.8477C19.7803 18.8493 19.8216 18.8398 19.8585 18.8203ZM14.9923 15.2637C13.6505 15.2637 12.3878 14.7393 11.4356 13.7871C10.9671 13.3199 10.5958 12.7645 10.3428 12.1531C10.0899 11.5417 9.96049 10.8863 9.96199 10.2246C9.96199 8.87988 10.4864 7.61426 11.4356 6.66211C12.3848 5.70996 13.6475 5.18555 14.9923 5.18555C16.337 5.18555 17.5968 5.70996 18.5489 6.66211C19.0174 7.12937 19.3888 7.6847 19.6417 8.29612C19.8946 8.90753 20.024 9.56295 20.0225 10.2246C20.0225 11.5693 19.4981 12.835 18.5489 13.7871C17.5968 14.7393 16.3341 15.2637 14.9923 15.2637ZM25.7677 22.2363H23.3067V19.7754C23.3067 19.6465 23.2012 19.541 23.0723 19.541H21.4317C21.3028 19.541 21.1973 19.6465 21.1973 19.7754V22.2363H18.7364C18.6075 22.2363 18.502 22.3418 18.502 22.4707V24.1113C18.502 24.2402 18.6075 24.3457 18.7364 24.3457H21.1973V26.8066C21.1973 26.9355 21.3028 27.041 21.4317 27.041H23.0723C23.2012 27.041 23.3067 26.9355 23.3067 26.8066V24.3457H25.7677C25.8966 24.3457 26.002 24.2402 26.002 24.1113V22.4707C26.002 22.3418 25.8966 22.2363 25.7677 22.2363Z" fill="#1E1B1B"/>
</svg>
