<svg width="64" height="64" xmlns="http://www.w3.org/2000/svg">

 <g>
  <title>Layer 1</title>
  <g stroke="null" id="svg_8">
   <ellipse stroke="#000" ry="12.5737" rx="18.95975" id="svg_2" cy="13.08324" cx="31.99933" fill="#007f00"/>
   <path stroke="#000" d="m22.07999,38.38033c-0.25112,0.59875 -0.50225,0.89812 -0.50225,1.49687c0,0.74843 0,0.89812 0,1.1975c0,0.29937 -0.2499,0.72622 -0.50225,2.2453c-0.07424,0.44688 -1.15007,2.71784 -1.75786,3.59249c-0.42978,0.61846 -1.21755,1.65331 -1.75786,2.69436c-0.46939,0.90441 -0.91232,1.82588 -1.75786,2.69436c-0.45446,0.46679 -0.95999,1.21636 -1.50674,1.64656c-1.39804,1.10004 -2.5458,1.63052 -3.51572,2.39499c-1.30304,1.02703 -1.75786,1.34718 -2.51123,1.79624c0,0 -0.75337,0.59875 -1.25561,0.59875c-0.25112,0 -0.63301,0.24088 -2.51123,1.04781c-1.18789,0.51035 -2.2601,0.74843 -2.51123,1.1975l-0.50225,0" id="svg_4" fill="none"/>
   <path stroke="#000" d="m43.17428,38.38033c-0.75337,0.89812 -1.14183,1.77299 -1.50674,2.69436c-0.40797,1.03013 -0.25112,1.49687 -0.25112,1.64656c0,0.44906 0,1.34718 0,2.09562c0,1.04781 0,2.2453 0,2.39499c0,0.14969 0.46674,1.301 1.00449,2.39499c0.4295,0.87378 0.63684,1.36453 1.50674,3.29311c0.88684,1.96614 1.6222,3.4192 2.2601,4.64029c0.30783,0.58927 0.81229,0.92091 1.00449,1.1975c0.13591,0.19557 0.51337,0.59439 1.00449,1.04781c1.28501,1.18636 2.30507,1.90755 3.76684,2.54468c1.29798,0.56574 2.43424,1.26617 2.76235,1.34718c0.46401,0.11457 0.75337,0 1.25561,0c0.50225,0 0.50225,0 1.25561,0c0.25112,0 0.75337,0 1.00449,0c0.25112,0 0.07356,-0.04384 0.25112,-0.14969c0.17757,-0.10584 0.75337,0 0.75337,0c0.25112,-0.14969 0.48491,-0.48465 1.25561,-0.59875c1.48247,-0.21948 2.2601,-0.29937 2.76235,-0.29937l0,-0.14969" id="svg_5" fill="none"/>
   <ellipse stroke="#000" ry="12.5737" rx="18.95975" id="svg_6" cy="25.95631" cx="18.94096" fill="#007f00"/>
   <ellipse stroke="#000" ry="12.5737" rx="18.95975" id="svg_7" cy="25.80663" cx="43.04872" fill="#007f00"/>
  </g>
 </g>
</svg>