<svg width="30" height="30" viewBox="0 0 30 30" fill="none" xmlns="http://www.w3.org/2000/svg">
<path d="M18.5944 22.3069C19.3223 21.5902 18.9295 19.9439 17.7403 18.0422C18.1725 17.9747 18.5766 17.8716 18.8822 17.7136C19.9819 17.1459 20.7244 16.1114 21.2864 15.0413C21.8906 13.8933 22.2961 12.6314 23.0845 11.5861C23.2177 11.4094 23.3508 11.2509 23.4834 11.1019C25.1845 11.3058 26.5425 11.6714 26.5425 11.6714L27.0614 10.3528C26.4065 10.1178 25.7349 9.93177 25.0523 9.79641C25.4705 9.55875 25.7433 9.48469 25.7433 9.48469L25.2516 8.15531C24.4631 8.48859 23.8233 8.98031 23.2875 9.56906C21.285 9.45703 19.2684 9.85594 17.6775 11.0897C16.4813 12.0178 15.6731 13.3045 14.9128 14.5917C14.2392 13.9306 13.5218 13.3156 12.7655 12.7509C12.9089 12.5152 13.0627 12.3033 13.2281 12.1397C14.228 11.1553 15.547 10.5258 16.4123 9.39937C18.2311 7.03406 16.9008 3.32625 15.4045 1.40625C15.1364 1.66453 14.693 2.04094 14.3592 2.33812C15.9497 3.96703 17.062 6.81891 15.8156 8.94984C15.1191 10.1409 13.8319 10.8881 12.9319 11.9114C12.7762 12.0891 12.637 12.3141 12.5109 12.5625C10.1573 10.8745 7.99734 10.1953 7.14141 11.0381C7.05642 11.1251 6.98641 11.2255 6.93422 11.3353L6.93094 11.332L6.90797 11.3991C6.87609 11.4717 6.84703 11.5472 6.82734 11.6297L0.9375 28.5938L18.1228 22.5853L18.1181 22.5806C18.3028 22.5211 18.4655 22.4334 18.5944 22.3069ZM4.35609 26.4056L2.92172 25.7372L3.88969 22.9481L8.32922 25.0163L4.35609 26.4056ZM12.3019 23.6273L4.85859 20.1591L5.82656 17.3705L11.3888 20.1623C8.06859 18.0014 6.79453 14.5809 6.79453 14.5809L7.12547 13.628C7.71375 15.1163 9.00797 16.9697 10.7864 18.7191C12.5798 20.4844 14.4806 21.7631 15.9998 22.3345L12.3019 23.6273ZM15.1608 14.843C15.938 13.7288 16.7391 12.6042 17.8528 11.8041C18.9131 11.0419 20.6344 10.9027 22.2661 10.9941C21.7148 11.9569 21.3075 13.0252 20.9419 14.0512C20.4998 15.2934 19.9073 16.5816 18.7777 17.3433C18.473 17.5486 18.0459 17.6986 17.5898 17.8097C16.9631 16.8492 16.1409 15.8339 15.1608 14.843Z" fill="#1E1B1B"/>
<path d="M10.7967 10.3125C11.2664 10.3125 9.8583 8.90626 10.0936 7.67298C10.9955 7.60361 13.0571 8.01001 11.8571 6.36189C13.2146 6.60095 13.9177 5.58751 12.6361 4.62705C13.0627 4.65705 13.7255 3.85267 13.2497 3.75095C11.7253 3.42798 11.1286 4.25251 12.0961 5.44173C11.0789 5.25236 10.2497 5.72533 11.0138 6.78751C8.07658 6.42142 9.74768 10.3125 10.7967 10.3125Z" fill="#1E1B1B"/>
<path d="M20.8805 9.06281C21.3206 8.86406 20.5739 7.55109 20.3311 7.21547C22.1888 7.01672 22.1184 6.46312 20.9536 5.27719C24.1205 5.38359 21.0516 3.58359 21.4819 2.87109C21.8545 2.25328 22.9978 2.90109 22.8919 2.55703C22.5347 1.40625 19.1466 2.18437 21.2906 4.33312C19.4194 4.36969 19.2398 4.98141 20.6344 6.24937C18.2053 6.27609 20.1872 9.375 20.8805 9.06281Z" fill="#1E1B1B"/>
<path d="M28.9205 13.6993C28.1789 13.9069 28.0645 13.8291 28.1634 14.5674C26.4506 13.779 24.6384 12.6825 25.7381 15.5874C23.7928 14.4291 23.8899 15.4435 23.5261 17.1127C23.0527 16.7438 22.38 15.7716 22.38 15.7716L21.6675 16.3768C21.6675 16.3768 22.973 18.218 23.6175 18.1135C24.1842 18.0221 24.4927 16.951 24.5241 16.0069C26.3288 16.7686 27.1927 16.8704 26.3672 14.6429C27.81 15.4533 29.5791 16.1682 28.9205 13.6993Z" fill="#1E1B1B"/>
<path d="M2.83549 5.36108L4.16112 6.68718L2.83549 8.0128L1.5094 6.68718L2.83549 5.36108Z" fill="#1E1B1B"/>
<path d="M6.01124 10.874L4.68468 12.1997L3.35858 10.8731L4.68514 9.547L6.01124 10.874Z" fill="#1E1B1B"/>
<path d="M8.07188 3.28125L9.39751 4.60688L8.07141 5.93344L6.74579 4.60688L8.07188 3.28125Z" fill="#1E1B1B"/>
<path d="M22.5052 21.7894L21.1786 20.4633L22.5042 19.1367L23.8308 20.4628L22.5052 21.7894Z" fill="#1E1B1B"/>
<path d="M19.5492 26.3371L18.2236 25.0115L19.5492 23.6854L20.8753 25.0115L19.5492 26.3371Z" fill="#1E1B1B"/>
<path d="M25.3655 27.3843L24.0389 26.0583L25.3641 24.7317L26.6906 26.0578L25.3655 27.3843Z" fill="#1E1B1B"/>
<path d="M26.6911 21.345L25.3655 20.0189L26.6911 18.6932L28.0167 20.0189L26.6911 21.345Z" fill="#1E1B1B"/>
<path d="M24.4781 4.6875L25.8038 6.01313L24.4777 7.33922L23.152 6.01313L24.4781 4.6875Z" fill="#1E1B1B"/>
</svg>
